<svg xmlns="http://www.w3.org/2000/svg" width="1768.839" height="889.414" viewBox="0 0 1768.839 889.414">
  <g id="background" transform="translate(241.841 -8.817)">
    <g id="Group_11" data-name="Group 11" transform="translate(-59.003 8.817)">
      <path id="Path_356" data-name="Path 356" d="M1411.356,559.393c-.11,182.372-148.04,330.127-330.414,330.017a330.111,330.111,0,0,1-52.07-4.163H505.684a448.537,448.537,0,0,1-60.978,4.164c-198.763,0-367.1-130.406-424.035-310.321A444.408,444.408,0,0,1,0,444.706C0,199.1,199.108,0,444.706,0c197.8,0,365.41,129.113,423.173,307.734a328.713,328.713,0,0,1,213.52-78.359C1263.605,229.375,1411.356,377.125,1411.356,559.393Z" transform="translate(0)" fill="#55efc4" opacity="0.1"/>
      <path id="Path_357" data-name="Path 357" d="M1280.693,739.728a330.523,330.523,0,0,1-255.712,65.844H501.793a448.528,448.528,0,0,1-60.978,4.164c-198.763,0-367.1-130.406-424.035-310.321C59.366,408.392,168.805,343.62,297.117,343.62c125.035,0,232.146,61.52,276.937,148.9a371.9,371.9,0,0,1,66.755-6c129.593,0,239.932,66.09,281.594,158.554a364.156,364.156,0,0,1,106.446-15.657C1134.544,629.414,1227.439,673.368,1280.693,739.728Z" transform="translate(3.891 79.676)" fill="#55efc4" opacity="0.1"/>
    </g>
    <g id="Group_12" data-name="Group 12" transform="translate(-194.493 64.516)">
      <path id="Path_358" data-name="Path 358" d="M326.018,140.718a32.63,32.63,0,0,0-18.931,2.066,27.894,27.894,0,0,1-22.735-.056,31.9,31.9,0,0,0-26.732.519,16.526,16.526,0,0,1-7.7,1.93c-10.837,0-19.857-10.916-21.731-25.321a20.976,20.976,0,0,0,5.419-5.848c6.356-10.239,16.2-16.809,27.251-16.809s20.771,6.491,27.093,16.628a20.92,20.92,0,0,0,18.005,9.889h.282C314.854,123.717,322.327,130.626,326.018,140.718Z" transform="translate(-228.1 -56.99)" fill="#55efc4" opacity="0.1"/>
      <path id="Path_359" data-name="Path 359" d="M358.992,100.1l-17.52,11.119,10.634-19.349a17.387,17.387,0,0,0-10.6-3.782h-.282a20.516,20.516,0,0,1-3.635-.26l-5.915,3.759,2.551-4.628a21.088,21.088,0,0,1-10.386-7.9L313.2,85.828l6.717-12.2c-6.22-7.462-14.6-12.045-23.808-12.045-11.052,0-20.9,6.581-27.251,16.82A20.319,20.319,0,0,1,250.8,88.109h-.6c-12.2,0-22.092,13.84-22.092,30.9s9.866,30.886,22.115,30.886a16.625,16.625,0,0,0,7.7-1.919,31.854,31.854,0,0,1,26.732-.531,27.894,27.894,0,0,0,22.735.056,31.936,31.936,0,0,1,26.506.508,16.526,16.526,0,0,0,7.609,1.885c12.2,0,22.092-13.829,22.092-30.9A39.249,39.249,0,0,0,358.992,100.1Z" transform="translate(-228.11 -61.58)" fill="#55efc4" opacity="0.1"/>
    </g>
    <g id="Group_15" data-name="Group 15" transform="translate(947.112 64.645)">
      <path id="Path_388" data-name="Path 388" d="M634.667,228.7a22.943,22.943,0,0,0-13.253,1.445,19.5,19.5,0,0,1-15.917,0,22.355,22.355,0,0,0-18.717.361,11.605,11.605,0,0,1-5.385,1.355c-7.586,0-13.9-7.642-15.206-17.735a14.612,14.612,0,0,0,3.793-4.087c4.448-7.168,11.289-11.763,19.067-11.763s14.551,4.515,19,11.639a14.674,14.674,0,0,0,12.6,6.92h.2C626.833,216.8,632.06,221.648,634.667,228.7Z" transform="translate(-566.145 -170.092)" fill="#55efc4" opacity="0.1"/>
      <path id="Path_389" data-name="Path 389" d="M657.724,200.279l-12.26,7.778L652.9,194.51a12.067,12.067,0,0,0-7.417-2.653H645.3a13.575,13.575,0,0,1-2.54-.181l-4.166,2.63,1.784-3.24a14.82,14.82,0,0,1-7.27-5.52l-7.462,4.73,4.7-8.546c-4.346-5.215-10.16-8.421-16.662-8.421-7.733,0-14.675,4.595-19.078,11.763a14.282,14.282,0,0,1-12.609,6.773h-.373c-8.534,0-15.466,9.686-15.466,21.629s6.931,21.629,15.466,21.629A11.49,11.49,0,0,0,587,233.75a22.355,22.355,0,0,1,18.717-.361,19.756,19.756,0,0,0,8,1.716,19.524,19.524,0,0,0,7.9-1.682,22.339,22.339,0,0,1,18.547.361A11.563,11.563,0,0,0,645.5,235.1c8.546,0,15.466-9.686,15.466-21.629A27.485,27.485,0,0,0,657.724,200.279Z" transform="translate(-566.15 -173.31)" fill="#55efc4" opacity="0.1"/>
    </g>
    <g id="Group_16" data-name="Group 16" transform="translate(-241.841 365.551)">
      <path id="Path_390" data-name="Path 390" d="M411.47,289.706a22.942,22.942,0,0,1,13.253,1.445,19.461,19.461,0,0,0,15.906,0,22.352,22.352,0,0,1,18.683.339,11.65,11.65,0,0,0,5.385,1.355c7.586,0,13.908-7.642,15.217-17.735a14.423,14.423,0,0,1-3.793-4.087c-4.448-7.168-11.345-11.763-19.078-11.763s-14.54,4.515-18.988,11.639a14.674,14.674,0,0,1-12.609,6.909h-.192C419.248,277.807,414.01,282.65,411.47,289.706Z" transform="translate(-385.131 -231.14)" fill="#55efc4" opacity="0.1"/>
      <path id="Path_391" data-name="Path 391" d="M391.357,261.274l12.26,7.778-7.451-13.546a12.088,12.088,0,0,1,7.417-2.653h.2a13.574,13.574,0,0,0,2.54-.181l4.154,2.63-1.784-3.24a14.836,14.836,0,0,0,7.281-5.52l7.439,4.719-4.7-8.489c4.357-5.215,10.216-8.421,16.673-8.421,7.733,0,14.675,4.595,19.078,11.763a14.268,14.268,0,0,0,12.61,6.773h.406c8.546,0,15.466,9.686,15.466,21.629s-6.92,21.629-15.466,21.629a11.547,11.547,0,0,1-5.385-1.355,22.355,22.355,0,0,0-18.717-.361,19.7,19.7,0,0,1-7.992,1.716,19.447,19.447,0,0,1-7.9-1.682,22.365,22.365,0,0,0-18.559.361,11.528,11.528,0,0,1-5.328,1.321c-8.534,0-15.466-9.686-15.466-21.629A27.49,27.49,0,0,1,391.357,261.274Z" transform="translate(-388.138 -234.35)" fill="#55efc4" opacity="0.1"/>
    </g>
    <g id="Group_17" data-name="Group 17" transform="translate(402.159 108.551)">
      <path id="Path_390-2" data-name="Path 390" d="M411.47,289.706a22.942,22.942,0,0,1,13.253,1.445,19.461,19.461,0,0,0,15.906,0,22.352,22.352,0,0,1,18.683.339,11.65,11.65,0,0,0,5.385,1.355c7.586,0,13.908-7.642,15.217-17.735a14.423,14.423,0,0,1-3.793-4.087c-4.448-7.168-11.345-11.763-19.078-11.763s-14.54,4.515-18.988,11.639a14.674,14.674,0,0,1-12.609,6.909h-.192C419.248,277.807,414.01,282.65,411.47,289.706Z" transform="translate(-385.131 -231.14)" fill="#55efc4" opacity="0.1"/>
      <path id="Path_391-2" data-name="Path 391" d="M391.357,261.274l12.26,7.778-7.451-13.546a12.088,12.088,0,0,1,7.417-2.653h.2a13.574,13.574,0,0,0,2.54-.181l4.154,2.63-1.784-3.24a14.836,14.836,0,0,0,7.281-5.52l7.439,4.719-4.7-8.489c4.357-5.215,10.216-8.421,16.673-8.421,7.733,0,14.675,4.595,19.078,11.763a14.268,14.268,0,0,0,12.61,6.773h.406c8.546,0,15.466,9.686,15.466,21.629s-6.92,21.629-15.466,21.629a11.547,11.547,0,0,1-5.385-1.355,22.355,22.355,0,0,0-18.717-.361,19.7,19.7,0,0,1-7.992,1.716,19.447,19.447,0,0,1-7.9-1.682,22.365,22.365,0,0,0-18.559.361,11.528,11.528,0,0,1-5.328,1.321c-8.534,0-15.466-9.686-15.466-21.629A27.49,27.49,0,0,1,391.357,261.274Z" transform="translate(-388.138 -234.35)" fill="#55efc4" opacity="0.1"/>
    </g>
    <g id="Group_18" data-name="Group 18" transform="translate(1391.507 695.516)">
      <path id="Path_358-2" data-name="Path 358" d="M326.018,140.718a32.63,32.63,0,0,0-18.931,2.066,27.894,27.894,0,0,1-22.735-.056,31.9,31.9,0,0,0-26.732.519,16.526,16.526,0,0,1-7.7,1.93c-10.837,0-19.857-10.916-21.731-25.321a20.976,20.976,0,0,0,5.419-5.848c6.356-10.239,16.2-16.809,27.251-16.809s20.771,6.491,27.093,16.628a20.92,20.92,0,0,0,18.005,9.889h.282C314.854,123.717,322.327,130.626,326.018,140.718Z" transform="translate(-228.1 -56.99)" fill="#55efc4" opacity="0.1"/>
      <path id="Path_359-2" data-name="Path 359" d="M358.992,100.1l-17.52,11.119,10.634-19.349a17.387,17.387,0,0,0-10.6-3.782h-.282a20.516,20.516,0,0,1-3.635-.26l-5.915,3.759,2.551-4.628a21.088,21.088,0,0,1-10.386-7.9L313.2,85.828l6.717-12.2c-6.22-7.462-14.6-12.045-23.808-12.045-11.052,0-20.9,6.581-27.251,16.82A20.319,20.319,0,0,1,250.8,88.109h-.6c-12.2,0-22.092,13.84-22.092,30.9s9.866,30.886,22.115,30.886a16.625,16.625,0,0,0,7.7-1.919,31.854,31.854,0,0,1,26.732-.531,27.894,27.894,0,0,0,22.735.056,31.936,31.936,0,0,1,26.506.508,16.526,16.526,0,0,0,7.609,1.885c12.2,0,22.092-13.829,22.092-30.9A39.249,39.249,0,0,0,358.992,100.1Z" transform="translate(-228.11 -61.58)" fill="#55efc4" opacity="0.1"/>
    </g>
  </g>
</svg>
